{"scenes":[{"nodes":[0]}],"nodes":[{"mesh":0,"rotation":[-0.70710678119,0.0,0.0,0.70710678119]}],"meshes":[{"primitives":[{"attributes":{"POSITION":1},"indices":0,"material":0}]}],"buffers":[{"byteLength":397128}],"bufferViews":[{"buffer":0,"byteOffset":0,"byteLength":153888,"target":34963},{"buffer":0,"byteOffset":153888,"byteLength":243240,"target":34962}],"accessors":[{"bufferView":0,"byteOffset":0,"componentType":5125,"count":38472,"type":"SCALAR","max":[20269],"min":[0]},{"bufferView":1,"byteOffset":0,"componentType":5126,"count":20270,"type":"VEC3","min":[6.797954360466338e-33,6.797954360466338e-33,6.797954360466338e-33],"max":[1.8615590189516027e+34,1.8615590189516027e+34,1.8615590189516027e+34]}],"materials":[{"pbrMetallicRoughness":{"baseColorFactor":[1.0,0.0,0.0,1],"metallicFactor":1,"roughnessFactor":1}}],"asset":{"version":"2.0","generator":"STL2GLTF"}}